# xmcd CD database file
#
# Track frame offsets:
#	150
#	33497
#	57226
#	78011
#	101946
#	131095
#	159047
#	183880
#	206514
#	233251
#	256712
#
# Disc length: 3853 seconds
#
# Revision: 0
# Processed by: cddbd v1.5.2PL0 Copyright (c) Steve Scherf et al.
# Submitted via: CDex 1.70beta2
#
DISCID=7c0f0b0b
DTITLE=Fourplay - Elixir
DYEAR=1900
DGENRE=Jazz
TTITLE0=Elixir
TTITLE1=Dream Come True
TTITLE2=Play Lady Play
TTITLE3=Why Can't It Wait Till Morning
TTITLE4=Magic Carpet Ride
TTITLE5=Whisper In My Ear 
TTITLE6=Fannie Mae
TTITLE7=The Closer I Get To You
TTITLE8=East 2 West
TTITLE9=Licorice
TTITLE10=In My Corner
EXTD=
EXTT0=
EXTT1=
EXTT2=
EXTT3=
EXTT4=
EXTT5=
EXTT6=
EXTT7=
EXTT8=
EXTT9=
EXTT10=
PLAYORDER=
